<?xml version="1.0" encoding="UTF-8" standalone="no"?><!DOCTYPE svg PUBLIC "-//W3C//DTD SVG 1.1//EN" "http://www.w3.org/Graphics/SVG/1.1/DTD/svg11.dtd"><svg width="100%" height="100%" viewBox="0 0 484 484" version="1.1" xmlns="http://www.w3.org/2000/svg" xmlns:xlink="http://www.w3.org/1999/xlink" xml:space="preserve" xmlns:serif="http://www.serif.com/" style="fill-rule:evenodd;clip-rule:evenodd;stroke-linejoin:round;stroke-miterlimit:2;"><rect id="Artboard4" x="0" y="0" width="481.31" height="481.31" style="fill:none;"/><clipPath id="_clip1"><rect x="0" y="0" width="481.31" height="481.31"/></clipPath><g clip-path="url(#_clip1)"><clipPath id="_clip2"><rect x="-9.302" y="-9.302" width="499.914" height="499.914"/></clipPath><g clip-path="url(#_clip2)"><clipPath id="_clip3"><rect x="-243.431" y="-243.431" width="968.172" height="968.172"/></clipPath><g clip-path="url(#_clip3)"><g><g id="Artboard2"><rect x="-243.434" y="-243.459" width="968.048" height="968.048" style="fill:none;"/><g><path d="M181.685,313.81c18.277,1.604 32.952,7.706 44.025,18.335c11.081,10.619 16.618,23.691 16.618,39.224c-0,12.101 -3.084,23.069 -9.252,32.887c-6.169,9.828 -14.562,17.533 -25.182,23.126c-10.62,5.602 -22.55,8.393 -35.801,8.393c-3.905,0 -21.928,0 -49.844,-2.056c-22.447,-1.65 -37.886,2.056 -41.29,2.056c-0.453,0 -0.679,-0.679 -0.679,-2.056c-0,-1.367 0.226,-2.056 0.679,-2.056c8.224,0 14.335,-0.622 18.334,-1.886c3.99,-1.254 6.734,-3.48 8.224,-6.677c1.481,-3.197 2.226,-9.592 2.226,-16.439l-0,-158.634c-0,-6.847 -0.689,-11.873 -2.056,-15.071c-1.377,-3.197 -3.999,-6.452 -7.885,-7.708c-3.876,-1.256 -9.931,-1.884 -18.155,-1.884c-0.688,-0 -1.028,-0.685 -1.028,-2.055c0,-1.364 0.34,-2.05 1.019,-2.056c-0,-0 0.009,0.001 0.019,0.002c0.452,0.104 18.428,4.232 40.592,2.054c20.89,-2.056 37.527,-2.056 40.592,-2.056c19.645,-0 34.377,4.111 44.195,12.333c9.827,8.223 14.731,19.186 14.731,32.89c0,10.959 -3.536,20.729 -10.619,29.293c-7.074,8.564 -16.901,15.25 -29.463,20.041Zm-14.732,115.458c16.448,-0 28.662,-4.282 36.659,-12.845c7.998,-8.564 11.987,-20.73 11.987,-36.49c0,-17.354 -4.96,-31.349 -14.901,-41.969c-9.931,-10.62 -23.691,-16.043 -41.281,-16.269c-6.46,-0.236 -12.741,2.169 -17.391,6.658c-4.649,4.49 -7.271,10.677 -7.271,17.137l-0,61.171c-0,5.706 0.848,10.158 2.565,13.355c1.716,3.197 4.857,5.536 9.422,7.026c4.565,1.481 11.308,2.226 20.211,2.226Zm-10.959,-204.534c-5.715,0 -9.997,0.514 -12.855,1.542c-2.848,1.028 -4.961,3.255 -6.338,6.68c-1.367,3.427 -2.046,8.677 -2.046,15.76l-0,49.674c-0,8.573 6.847,15.571 15.41,15.76c15.76,-0 27.464,-4.338 35.122,-13.015c7.649,-8.677 11.478,-20.098 11.478,-34.264c0,-12.789 -3.32,-23.012 -9.94,-30.66c-6.621,-7.651 -16.901,-11.477 -30.831,-11.477Zm135.914,-156.992c-0.972,-0.281 -1.698,-0.868 -2.179,-1.761c-0.481,-0.894 -0.585,-1.813 -0.311,-2.759c0.283,-0.966 0.868,-1.686 1.745,-2.162c0.877,-0.475 1.801,-0.571 2.772,-0.29c0.944,0.274 1.66,0.849 2.151,1.722c0.49,0.873 0.585,1.793 0.311,2.759c-0.283,0.946 -0.858,1.666 -1.745,2.161c-0.886,0.495 -1.801,0.606 -2.744,0.33Z" style="fill:#df7a75;"/></g><g><path d="M266.651,311.905c1.613,-0.132 2.952,0.255 4.027,1.179c1.075,0.915 1.688,2.198 1.82,3.848l0.962,11.469c0.142,1.65 -0.245,3.018 -1.15,4.102c-0.915,1.085 -2.17,1.698 -3.782,1.83c-1.623,0.141 -2.981,-0.255 -4.065,-1.17c-1.094,-0.924 -1.707,-2.207 -1.839,-3.857l-0.962,-11.468c-0.132,-1.623 0.254,-2.99 1.169,-4.084c0.924,-1.094 2.198,-1.717 3.82,-1.849Zm0.16,1.943c-0.952,0.076 -1.707,0.462 -2.254,1.151c-0.538,0.688 -0.764,1.528 -0.679,2.537l0.981,11.685c0.085,1.019 0.453,1.82 1.094,2.415c0.651,0.584 1.452,0.839 2.414,0.754c0.943,-0.075 1.679,-0.462 2.207,-1.141c0.538,-0.689 0.755,-1.547 0.67,-2.565l-0.981,-11.686c-0.085,-1.009 -0.443,-1.801 -1.075,-2.386c-0.642,-0.594 -1.434,-0.849 -2.377,-0.764Zm16.42,-4.489c1.509,-0.34 2.848,-0.113 4.018,0.67c1.16,0.792 1.933,1.999 2.291,3.612l0.161,0.707c0.047,0.198 -0.038,0.33 -0.236,0.377l-1.509,0.34c-0.198,0.038 -0.33,-0.038 -0.377,-0.245l-0.132,-0.613c-0.245,-1.085 -0.717,-1.896 -1.424,-2.434c-0.698,-0.537 -1.491,-0.707 -2.368,-0.518c-0.858,0.198 -1.499,0.679 -1.933,1.433c-0.424,0.764 -0.528,1.669 -0.292,2.716c0.16,0.689 0.424,1.255 0.82,1.698c0.387,0.443 0.839,0.802 1.368,1.075c0.528,0.283 1.386,0.698 2.584,1.245c1.188,0.519 2.141,0.99 2.857,1.396c0.717,0.415 1.349,0.952 1.896,1.622c0.547,0.67 0.943,1.518 1.17,2.546c0.358,1.594 0.179,2.952 -0.529,4.094c-0.707,1.141 -1.801,1.876 -3.272,2.207c-1.556,0.349 -2.914,0.122 -4.074,-0.689c-1.151,-0.802 -1.924,-2.037 -2.302,-3.716l-0.169,-0.764c-0.048,-0.207 0.028,-0.33 0.235,-0.377l1.538,-0.349c0.198,-0.038 0.33,0.038 0.377,0.245l0.17,0.792c0.245,1.085 0.716,1.896 1.405,2.443c0.698,0.538 1.49,0.708 2.386,0.509c0.821,-0.179 1.434,-0.622 1.83,-1.329c0.405,-0.698 0.481,-1.585 0.245,-2.651c-0.142,-0.631 -0.387,-1.16 -0.726,-1.593c-0.349,-0.425 -0.802,-0.802 -1.368,-1.123c-0.566,-0.32 -1.386,-0.726 -2.471,-1.216c-1.424,-0.623 -2.509,-1.151 -3.235,-1.575c-0.726,-0.434 -1.33,-0.934 -1.811,-1.528c-0.471,-0.594 -0.82,-1.358 -1.028,-2.301c-0.377,-1.67 -0.198,-3.122 0.529,-4.358c0.735,-1.226 1.858,-2.009 3.376,-2.348Zm15.514,-4.603c1.453,-0.537 2.811,-0.49 4.075,0.132c1.263,0.632 2.178,1.726 2.754,3.273l0.245,0.679c0.075,0.198 0.019,0.33 -0.179,0.406l-1.443,0.537c-0.198,0.066 -0.34,0.01 -0.406,-0.188l-0.217,-0.585c-0.387,-1.047 -0.962,-1.792 -1.735,-2.235c-0.764,-0.434 -1.566,-0.5 -2.415,-0.189c-0.83,0.302 -1.405,0.868 -1.725,1.679c-0.321,0.811 -0.302,1.716 0.066,2.726c0.254,0.669 0.594,1.188 1.037,1.575c0.443,0.386 0.943,0.679 1.509,0.886c0.556,0.208 1.462,0.5 2.716,0.887c1.255,0.358 2.264,0.698 3.028,1.009c0.764,0.311 1.461,0.754 2.093,1.348c0.632,0.595 1.132,1.377 1.49,2.368c0.576,1.528 0.576,2.904 0.029,4.131c-0.557,1.216 -1.538,2.093 -2.952,2.612c-1.5,0.556 -2.867,0.509 -4.122,-0.132c-1.254,-0.641 -2.188,-1.764 -2.782,-3.376l-0.273,-0.736c-0.076,-0.198 -0.01,-0.33 0.188,-0.406l1.472,-0.547c0.198,-0.066 0.33,-0.009 0.405,0.189l0.283,0.764c0.387,1.047 0.962,1.782 1.716,2.235c0.755,0.443 1.566,0.509 2.434,0.189c0.783,-0.293 1.33,-0.811 1.631,-1.566c0.302,-0.745 0.264,-1.631 -0.113,-2.659c-0.226,-0.604 -0.537,-1.094 -0.934,-1.481c-0.396,-0.377 -0.895,-0.689 -1.499,-0.934c-0.604,-0.245 -1.471,-0.537 -2.603,-0.877c-1.5,-0.424 -2.641,-0.802 -3.424,-1.132c-0.782,-0.32 -1.443,-0.745 -1.999,-1.273c-0.547,-0.519 -0.99,-1.235 -1.33,-2.141c-0.594,-1.603 -0.613,-3.074 -0.047,-4.385c0.566,-1.311 1.575,-2.245 3.027,-2.783Zm19.702,14.091c-0.094,-0.179 -0.047,-0.321 0.132,-0.425l6.451,-3.395c0.076,-0.047 0.095,-0.104 0.057,-0.17l-3.641,-6.903c-0.037,-0.066 -0.094,-0.085 -0.169,-0.048l-4.056,2.141c-0.188,0.095 -0.33,0.048 -0.424,-0.132l-0.632,-1.197c-0.094,-0.189 -0.057,-0.331 0.132,-0.425l4.055,-2.141c0.076,-0.037 0.095,-0.094 0.057,-0.169l-3.65,-6.923c-0.047,-0.075 -0.104,-0.094 -0.17,-0.057l-6.451,3.405c-0.188,0.094 -0.33,0.057 -0.424,-0.132l-0.623,-1.169c-0.094,-0.18 -0.047,-0.321 0.133,-0.425l8.261,-4.357c0.189,-0.094 0.321,-0.047 0.425,0.132l9.969,18.91c0.103,0.188 0.056,0.33 -0.133,0.424l-8.252,4.357c-0.188,0.104 -0.33,0.057 -0.424,-0.132l-0.623,-1.169Zm6.291,-27.096c0.151,-0.113 0.302,-0.113 0.453,-0.019l8.261,6.036c0.048,0.038 0.104,0.038 0.151,-0l2.226,-1.594c0.066,-0.047 0.076,-0.104 0.028,-0.17l-5.592,-7.818c-0.123,-0.17 -0.104,-0.321 0.066,-0.444l1.311,-0.933c0.16,-0.123 0.311,-0.095 0.433,0.075l12.44,17.382c0.123,0.17 0.104,0.311 -0.066,0.434l-4.216,3.018c-1.244,0.896 -2.584,1.16 -3.998,0.802c-1.424,-0.368 -2.66,-1.283 -3.707,-2.745c-0.792,-1.113 -1.235,-2.235 -1.33,-3.376c-0.094,-1.142 0.151,-2.17 0.736,-3.084c0.057,-0.066 0.047,-0.123 -0.019,-0.18l-8.516,-6.007l-0.095,-0.085c-0.085,-0.113 -0.047,-0.236 0.104,-0.34l1.33,-0.952Zm16.91,12.562c0.066,-0.056 0.085,-0.113 0.028,-0.179l-4.63,-6.47c-0.047,-0.066 -0.104,-0.075 -0.17,-0.028l-2.301,1.65c-0.783,0.557 -1.198,1.311 -1.245,2.254c-0.038,0.953 0.292,1.924 1.018,2.934c0.717,1.009 1.538,1.641 2.453,1.914c0.914,0.274 1.763,0.132 2.546,-0.434l2.301,-1.641Zm14.119,-9.356c-1.113,1.047 -2.396,1.5 -3.848,1.33c-1.462,-0.16 -2.82,-0.905 -4.074,-2.226c-1.236,-1.301 -1.906,-2.678 -2,-4.102c-0.085,-1.434 0.415,-2.669 1.509,-3.716l2.348,-2.226c0.057,-0.056 0.057,-0.122 0,-0.179l-6.535,-6.885c-0.142,-0.151 -0.142,-0.292 0.009,-0.443l1.16,-1.104c0.151,-0.141 0.302,-0.141 0.443,0.01l14.751,15.514c0.151,0.161 0.141,0.302 -0.01,0.453l-3.753,3.574Zm-6.885,-7.648c-0.679,0.65 -0.971,1.452 -0.877,2.405c0.094,0.943 0.575,1.876 1.433,2.791c0.868,0.906 1.783,1.443 2.735,1.594c0.953,0.142 1.764,-0.104 2.453,-0.754l2.074,-1.972c0.057,-0.056 0.057,-0.113 0,-0.179l-5.564,-5.857c-0.057,-0.056 -0.113,-0.056 -0.179,0l-2.075,1.972Zm3.131,-21.164c0.962,-1.207 2.15,-1.868 3.556,-1.981c1.405,-0.122 2.754,0.34 4.046,1.368l0.566,0.453c0.169,0.132 0.179,0.282 0.056,0.443l-0.962,1.207c-0.132,0.16 -0.283,0.179 -0.443,0.047l-0.491,-0.387c-0.867,-0.697 -1.744,-1.028 -2.631,-1.018c-0.886,0.019 -1.613,0.387 -2.169,1.085c-0.556,0.688 -0.755,1.471 -0.613,2.329c0.141,0.868 0.632,1.632 1.471,2.301c0.557,0.444 1.123,0.708 1.698,0.811c0.575,0.095 1.16,0.095 1.745,-0.019c0.584,-0.113 1.509,-0.33 2.791,-0.65c1.255,-0.34 2.292,-0.566 3.103,-0.698c0.821,-0.132 1.651,-0.104 2.499,0.075c0.849,0.179 1.679,0.594 2.5,1.255c1.273,1.018 1.999,2.188 2.15,3.527c0.16,1.33 -0.226,2.584 -1.169,3.763c-0.991,1.245 -2.198,1.915 -3.603,2.018c-1.405,0.095 -2.773,-0.386 -4.122,-1.462l-0.613,-0.49c-0.16,-0.123 -0.179,-0.274 -0.047,-0.443l0.981,-1.226c0.123,-0.161 0.274,-0.18 0.434,-0.047l0.641,0.509c0.868,0.688 1.745,1.037 2.622,1.018c0.877,-0.009 1.603,-0.367 2.179,-1.094c0.528,-0.65 0.726,-1.377 0.594,-2.178c-0.123,-0.802 -0.613,-1.538 -1.471,-2.217c-0.51,-0.405 -1.028,-0.669 -1.566,-0.782c-0.538,-0.123 -1.122,-0.132 -1.764,-0.029c-0.65,0.104 -1.546,0.302 -2.688,0.594c-1.509,0.406 -2.678,0.68 -3.508,0.802c-0.839,0.123 -1.632,0.104 -2.367,-0.056c-0.745,-0.161 -1.49,-0.547 -2.245,-1.142c-1.349,-1.075 -2.112,-2.32 -2.31,-3.734c-0.199,-1.415 0.188,-2.735 1.15,-3.952Zm24.154,1.886c-0.17,-0.113 -0.208,-0.255 -0.104,-0.434l3.772,-6.243c0.047,-0.066 0.029,-0.132 -0.047,-0.17l-6.668,-4.027c-0.075,-0.047 -0.132,-0.028 -0.179,0.038l-2.367,3.932c-0.113,0.18 -0.255,0.208 -0.434,0.104l-1.16,-0.698c-0.179,-0.113 -0.208,-0.254 -0.104,-0.434l2.377,-3.923c0.038,-0.075 0.028,-0.132 -0.047,-0.179l-6.696,-4.046c-0.076,-0.038 -0.133,-0.028 -0.18,0.047l-3.763,6.243c-0.113,0.18 -0.254,0.217 -0.434,0.104l-1.131,-0.679c-0.18,-0.113 -0.217,-0.254 -0.104,-0.434l4.819,-7.988c0.113,-0.189 0.255,-0.217 0.434,-0.113l18.297,11.053c0.188,0.104 0.217,0.246 0.113,0.425l-4.829,7.997c-0.104,0.18 -0.254,0.217 -0.434,0.104l-1.131,-0.679Zm-4.914,-33.763c-0.057,0.028 -0.123,0.028 -0.198,0.003c-0.047,-0.013 -0.076,-0.046 -0.104,-0.099c-0.028,-0.053 -0.028,-0.119 0,-0.198l0.519,-1.618c0.047,-0.159 0.141,-0.259 0.292,-0.3l2.188,-0.652c0.047,-0.008 0.076,-0.031 0.095,-0.071c0.009,-0.039 0.009,-0.072 -0.01,-0.099c-0.556,-0.995 -0.896,-1.944 -1,-2.847c-0.103,-0.904 0,-1.844 0.312,-2.822c0.49,-1.537 1.311,-2.616 2.461,-3.24c1.141,-0.622 2.509,-0.681 4.084,-0.175c1.339,0.428 2.395,1.12 3.178,2.076c0.783,0.955 1.462,2.143 2.047,3.561c-0,0.066 0.047,0.091 0.141,0.077c1.302,-0.372 2.311,-0.634 3.009,-0.784c0.698,-0.151 1.264,-0.215 1.707,-0.194c0.443,0.021 0.924,0.115 1.443,0.281c1.405,0.448 2.386,1.207 2.971,2.273c0.584,1.068 0.669,2.25 0.254,3.546c-0.415,1.298 -1.188,2.224 -2.301,2.781c-1.113,0.556 -2.348,0.617 -3.706,0.182c-1.217,-0.391 -2.16,-1.035 -2.83,-1.932c-0.669,-0.897 -1.311,-2.081 -1.914,-3.552c-0,-0.066 -0.047,-0.092 -0.142,-0.078c-1.367,0.44 -2.405,0.757 -3.112,0.95l-3.226,1.012c-0.028,0.013 -0.047,0.04 -0.056,0.08c-0.019,0.04 -0.01,0.073 -0,0.099c0.33,0.414 0.981,1.153 1.962,2.215c0.066,0.066 0.103,0.141 0.094,0.228c-0.01,0.086 -0.038,0.162 -0.104,0.229l-1.028,0.927c-0.151,0.127 -0.302,0.112 -0.443,-0.045c-0.972,-1.016 -1.82,-2.001 -2.528,-2.954c-0.047,-0.039 -0.103,-0.059 -0.179,-0.058l-3.876,1.198Zm21.418,-1.846c0.217,-0.678 0.151,-1.305 -0.198,-1.881c-0.358,-0.575 -0.952,-0.998 -1.792,-1.267c-0.566,-0.179 -1.122,-0.244 -1.688,-0.195c-0.566,0.05 -1.547,0.269 -2.952,0.656c-0.094,0.014 -0.123,0.061 -0.075,0.14c0.443,1.069 0.924,1.93 1.414,2.583c0.491,0.654 1.142,1.109 1.943,1.365c0.792,0.257 1.5,0.252 2.113,-0.014c0.613,-0.265 1.028,-0.727 1.235,-1.387Zm-17.532,-6.053c-0.217,0.659 -0.246,1.33 -0.104,2.015c0.141,0.685 0.462,1.435 0.943,2.251c0.047,0.059 0.113,0.079 0.179,0.058l2.528,-0.775l4.3,-1.361c0.076,-0.021 0.085,-0.071 0.048,-0.15c-0.463,-1.095 -0.981,-1.982 -1.557,-2.662c-0.575,-0.679 -1.311,-1.163 -2.207,-1.45c-0.943,-0.301 -1.782,-0.276 -2.537,0.078c-0.745,0.354 -1.282,1.018 -1.593,1.996Zm2.933,-21.708c0.019,-0.188 0.122,-0.295 0.311,-0.321l3.952,-0.451c0.047,0.003 0.075,-0.009 0.103,-0.039c0.019,-0.03 0.038,-0.066 0.038,-0.107l0.481,-5.67c0.01,-0.042 0,-0.079 -0.019,-0.112c-0.019,-0.033 -0.047,-0.051 -0.094,-0.055l-3.81,-1.115c-0.189,-0.037 -0.274,-0.159 -0.255,-0.369l0.132,-1.597c0.009,-0.104 0.047,-0.179 0.113,-0.227c0.066,-0.047 0.151,-0.055 0.255,-0.025l20.9,6.516c0.188,0.058 0.273,0.181 0.254,0.369l-0.16,1.879c-0.019,0.209 -0.123,0.315 -0.311,0.321l-21.711,2.943l-0.057,-0.005c-0.188,-0.016 -0.273,-0.118 -0.264,-0.307l0.142,-1.628Zm6.809,-6.171c-0.085,-0.008 -0.132,0.021 -0.132,0.083l-0.424,4.949c-0.01,0.063 0.037,0.097 0.113,0.105l12.524,-1.455c0.067,-0.016 0.104,-0.034 0.104,-0.055c0,-0.021 -0.028,-0.044 -0.094,-0.071l-12.091,-3.556Zm14.43,-10.496c-0.208,0.01 -0.311,-0.09 -0.321,-0.299l-0.358,-7.285c-0,-0.084 -0.047,-0.124 -0.132,-0.12l-7.781,0.377c-0.085,0.004 -0.132,0.048 -0.123,0.132l0.217,4.584c0.01,0.21 -0.085,0.319 -0.292,0.329l-1.349,0.065c-0.217,0.011 -0.32,-0.089 -0.33,-0.298l-0.226,-4.584c-0,-0.084 -0.047,-0.124 -0.132,-0.12l-7.819,0.378c-0.085,0.004 -0.122,0.048 -0.113,0.131l0.349,7.286c0.009,0.209 -0.094,0.319 -0.302,0.329l-1.32,0.063c-0.208,0.011 -0.321,-0.088 -0.33,-0.298l-0.443,-9.326c-0.019,-0.21 0.084,-0.319 0.292,-0.329l21.352,-1.033c0.217,-0.011 0.321,0.089 0.33,0.299l0.453,9.325c0.009,0.21 -0.094,0.319 -0.302,0.33l-1.32,0.064Zm-265.141,-5.039c-0.094,1.611 -0.66,2.875 -1.698,3.792c-1.037,0.917 -2.386,1.328 -4.036,1.234l-11.648,-0.665c-1.631,-0.094 -2.905,-0.655 -3.838,-1.684c-0.925,-1.029 -1.349,-2.349 -1.255,-3.961c0.095,-1.632 0.66,-2.907 1.688,-3.823c1.028,-0.918 2.368,-1.329 4.018,-1.235l0.538,0.03c0.207,0.012 0.302,0.123 0.292,0.332l0,1.637c-0.009,0.21 -0.123,0.308 -0.33,0.297l-0.783,-0.046c-0.981,-0.055 -1.801,0.181 -2.433,0.711c-0.641,0.531 -0.99,1.267 -1.037,2.208c-0.057,0.921 0.207,1.687 0.773,2.297c0.575,0.61 1.358,0.943 2.339,0.999l11.987,0.685c0.99,0.056 1.801,-0.187 2.443,-0.727c0.632,-0.541 0.981,-1.271 1.037,-2.193c0.047,-0.941 -0.207,-1.711 -0.783,-2.311c-0.575,-0.599 -1.358,-0.927 -2.339,-0.984l-0.782,-0.044c-0.208,-0.013 -0.312,-0.123 -0.302,-0.332l0.188,-1.627c0.019,-0.21 0.123,-0.308 0.34,-0.296l0.5,0.029c1.65,0.094 2.942,0.661 3.867,1.7c0.924,1.041 1.348,2.366 1.254,3.977Zm2.556,-20.325c-0.038,0.186 -0.151,0.281 -0.349,0.286l-3.971,0.033c-0.047,-0.008 -0.075,0.002 -0.103,0.028c-0.029,0.028 -0.048,0.062 -0.057,0.103l-1.075,5.587c-0.01,0.041 -0.01,0.078 0.009,0.113c0.01,0.035 0.038,0.057 0.085,0.064l3.678,1.511c0.179,0.057 0.255,0.188 0.208,0.394l-0.302,1.574c-0.019,0.103 -0.066,0.174 -0.132,0.214c-0.076,0.039 -0.16,0.038 -0.264,-0.002l-20.089,-8.682c-0.179,-0.077 -0.254,-0.208 -0.217,-0.393l0.359,-1.852c0.037,-0.206 0.151,-0.301 0.339,-0.286l21.9,-0.64l0.066,0.012c0.179,0.036 0.254,0.146 0.217,0.331l-0.302,1.605Zm262.604,5.551c0.047,0.205 -0.038,0.328 -0.245,0.366l-1.302,0.247c-0.207,0.038 -0.33,-0.046 -0.368,-0.251l-0.773,-4.077c-0.01,-0.083 -0.057,-0.116 -0.142,-0.1l-19.277,3.649c-0.208,0.039 -0.33,-0.044 -0.368,-0.249l-0.292,-1.576c-0.047,-0.206 0.037,-0.329 0.245,-0.367l19.277,-3.651c0.085,-0.015 0.114,-0.064 0.095,-0.146l-0.717,-3.831c-0.047,-0.206 0.038,-0.329 0.245,-0.367l1.302,-0.246c0.198,-0.039 0.32,0.045 0.367,0.251l1.953,10.348Zm-270.027,-0.131c0.085,0.016 0.132,-0.006 0.142,-0.068l0.943,-4.877c0.009,-0.063 -0.028,-0.101 -0.104,-0.117l-12.609,0.128c-0.066,0.008 -0.104,0.023 -0.104,0.043c-0.01,0.021 0.019,0.047 0.075,0.08l11.657,4.811Zm12.214,-21.256c-0.066,0.178 -0.189,0.27 -0.368,0.275l-10.223,-0.139c-0.066,-0.001 -0.114,0.029 -0.132,0.089l-0.896,2.585c-0.019,0.079 -0,0.132 0.084,0.159l9.092,3.139c0.198,0.069 0.264,0.202 0.198,0.4l-0.528,1.515c-0.066,0.198 -0.198,0.264 -0.396,0.196l-20.211,-6.976c-0.198,-0.068 -0.264,-0.202 -0.198,-0.4l1.697,-4.903c0.5,-1.446 1.434,-2.432 2.801,-2.958c1.368,-0.525 2.905,-0.494 4.603,0.094c1.292,0.445 2.301,1.105 3.046,1.981c0.736,0.876 1.132,1.854 1.179,2.935c-0.009,0.086 0.028,0.133 0.123,0.141l10.412,-0.028l0.132,0.011c0.141,0.047 0.179,0.16 0.113,0.338l-0.528,1.546Zm-21.07,-0.453c-0.028,0.08 0,0.133 0.085,0.161l7.517,2.595c0.075,0.028 0.132,0.001 0.16,-0.078l0.925,-2.675c0.311,-0.911 0.217,-1.765 -0.302,-2.563c-0.509,-0.797 -1.349,-1.398 -2.518,-1.801c-1.17,-0.403 -2.207,-0.451 -3.113,-0.143c-0.905,0.309 -1.509,0.919 -1.829,1.831l-0.925,2.673Zm269.687,-6.866c-0.198,0.081 -0.339,0.025 -0.415,-0.168l-2.82,-6.728c-0.028,-0.077 -0.085,-0.1 -0.16,-0.067l-7.196,3.011c-0.075,0.032 -0.094,0.088 -0.066,0.165l1.773,4.234c0.085,0.193 0.028,0.33 -0.17,0.411l-1.245,0.521c-0.198,0.082 -0.33,0.026 -0.415,-0.167l-1.773,-4.234c-0.028,-0.078 -0.085,-0.1 -0.16,-0.068l-7.224,3.024c-0.076,0.033 -0.095,0.087 -0.066,0.165l2.82,6.727c0.075,0.193 0.028,0.33 -0.17,0.411l-1.217,0.51c-0.198,0.081 -0.33,0.025 -0.415,-0.168l-3.603,-8.613c-0.084,-0.193 -0.028,-0.33 0.17,-0.411l19.721,-8.257c0.189,-0.081 0.33,-0.025 0.405,0.168l3.613,8.612c0.075,0.194 0.019,0.331 -0.17,0.412l-1.217,0.51Zm-245.354,-0.616c-0.104,0.186 -0.236,0.233 -0.424,0.137l-19.051,-9.706c-0.189,-0.095 -0.227,-0.237 -0.132,-0.424l2.197,-4.313c0.726,-1.438 1.783,-2.346 3.169,-2.724c1.377,-0.378 2.858,-0.163 4.451,0.646l9.186,4.681c1.585,0.81 2.632,1.884 3.141,3.223c0.5,1.34 0.387,2.729 -0.339,4.167l-2.198,4.313Zm-0.981,-2.65c0.076,0.037 0.132,0.019 0.17,-0.056l1.226,-2.479c0.415,-0.821 0.434,-1.642 0.057,-2.46c-0.387,-0.818 -1.113,-1.513 -2.188,-2.084l-9.017,-4.595c-1.103,-0.563 -2.093,-0.763 -2.98,-0.6c-0.877,0.162 -1.537,0.672 -1.981,1.531l-1.254,2.465c-0.038,0.075 -0.019,0.131 0.057,0.17l15.91,8.108Zm216.344,-11.472c-0.104,-0.181 -0.066,-0.324 0.113,-0.429l18.504,-10.709c0.179,-0.106 0.33,-0.067 0.434,0.114l0.802,1.387c0.103,0.182 0.066,0.326 -0.114,0.431l-16.976,9.827c-0.075,0.041 -0.094,0.099 -0.047,0.172l3.603,6.23c0.104,0.182 0.066,0.325 -0.113,0.43l-1.142,0.661c-0.179,0.105 -0.33,0.067 -0.433,-0.114l-4.631,-8Zm-206.714,-1.381c-0.114,0.175 -0.265,0.204 -0.434,0.089l-17.854,-11.763c-0.169,-0.115 -0.198,-0.261 -0.085,-0.435l0.878,-1.339c0.122,-0.176 0.264,-0.205 0.433,-0.09l17.854,11.764c0.179,0.115 0.207,0.26 0.094,0.435l-0.886,1.339Zm207.666,-7.958c-1.471,1.175 -2.942,1.679 -4.395,1.512c-1.461,-0.167 -2.716,-0.929 -3.772,-2.285l-2.952,-3.796c-0.132,-0.165 -0.113,-0.312 0.057,-0.441l16.863,-13.129c0.169,-0.129 0.32,-0.11 0.443,0.055l2.782,3.573c1.104,1.422 1.585,2.844 1.434,4.266c-0.161,1.422 -0.962,2.7 -2.424,3.832c-1.849,1.441 -3.65,1.74 -5.395,0.894c-0.047,-0.019 -0.075,-0.023 -0.085,-0.01c-0.019,0.012 -0.028,0.034 -0.037,0.063c0.292,2.112 -0.547,3.934 -2.519,5.466Zm-211.543,-20.566c0.17,0.134 0.18,0.282 0.047,0.442l-4.63,5.558c-0.047,0.064 -0.047,0.123 0.019,0.177l5.988,4.987c0.066,0.054 0.123,0.049 0.18,-0.016l2.914,-3.503c0.141,-0.162 0.283,-0.175 0.443,-0.041l1.038,0.865c0.16,0.134 0.179,0.282 0.047,0.443l-2.915,3.504c-0.056,0.064 -0.056,0.123 0.01,0.176l7.375,6.134c0.16,0.134 0.17,0.282 0.038,0.444l-1.028,1.231c-0.132,0.162 -0.283,0.175 -0.443,0.041l-16.43,-13.675c-0.16,-0.135 -0.169,-0.282 -0.037,-0.444l5.932,-7.128c0.132,-0.16 0.283,-0.174 0.443,-0.04l1.009,0.845Zm204.838,18.453c0.688,0.876 1.518,1.334 2.49,1.373c0.971,0.04 1.99,-0.353 3.046,-1.176c1.075,-0.836 1.716,-1.735 1.924,-2.694c0.207,-0.961 -0.028,-1.878 -0.707,-2.755l-1.604,-2.059c-0.047,-0.066 -0.113,-0.074 -0.179,-0.022l-6.545,5.097c-0.066,0.052 -0.076,0.11 -0.019,0.176l1.594,2.06Zm12.666,-13.161c-0.047,-0.066 -0.104,-0.074 -0.17,-0.022l-5.979,4.652c-0.066,0.052 -0.076,0.111 -0.028,0.178l1.527,1.959c0.698,0.894 1.5,1.382 2.415,1.466c0.915,0.085 1.858,-0.246 2.81,-0.993c0.991,-0.772 1.575,-1.622 1.745,-2.549c0.17,-0.928 -0.094,-1.838 -0.792,-2.732l-1.528,-1.959Zm-17.325,1.466c-1.302,1.368 -2.688,2.068 -4.15,2.104c-1.471,0.036 -2.82,-0.545 -4.055,-1.743l-3.443,-3.352c-0.151,-0.147 -0.151,-0.295 -0.009,-0.446l14.901,-15.328c0.142,-0.15 0.292,-0.152 0.443,-0.006l3.245,3.156c1.292,1.256 1.961,2.599 2.009,4.029c0.037,1.429 -0.585,2.805 -1.868,4.128c-1.641,1.682 -3.376,2.226 -5.225,1.63c-0.047,-0.014 -0.075,-0.014 -0.085,0.001c-0.018,0.015 -0.028,0.037 -0.028,0.067c0.575,2.052 0,3.972 -1.735,5.76Zm-187.013,-19.725c0.142,0.152 0.132,0.301 -0.019,0.444l-5.3,4.918c-0.056,0.058 -0.066,0.117 0,0.179l5.3,5.714c0.057,0.061 0.114,0.063 0.18,0.007l3.338,-3.101c0.151,-0.144 0.302,-0.138 0.444,0.016l0.924,0.991c0.141,0.153 0.132,0.302 -0.019,0.444l-3.339,3.101c-0.066,0.057 -0.066,0.116 -0.009,0.177l6.526,7.029c0.142,0.153 0.132,0.301 -0.019,0.444l-1.178,1.09c-0.151,0.143 -0.302,0.138 -0.444,-0.016l-14.543,-15.668c-0.141,-0.154 -0.141,-0.302 0.019,-0.444l6.791,-6.31c0.16,-0.142 0.311,-0.137 0.452,0.016l0.896,0.969Zm180.081,18.557c0.792,0.774 1.679,1.113 2.65,1.018c0.962,-0.095 1.915,-0.624 2.858,-1.586c0.943,-0.976 1.452,-1.954 1.528,-2.934c0.075,-0.979 -0.283,-1.856 -1.076,-2.631l-1.876,-1.818c-0.057,-0.058 -0.114,-0.057 -0.17,0.003l-5.791,5.951c-0.057,0.059 -0.057,0.119 -0,0.177l1.877,1.82Zm-160.662,-4.858c-0.066,0.051 -0.141,0.07 -0.235,0.059c-0.085,-0.011 -0.151,-0.065 -0.199,-0.161l-3.338,-5.924c-0.095,-0.162 -0.066,-0.301 0.075,-0.416l1.123,-0.864c0.188,-0.14 0.33,-0.106 0.433,0.102l2.99,6.193c0.094,0.162 0.066,0.307 -0.104,0.434l-0.745,0.577Zm171.385,-9.923c-0.056,-0.058 -0.113,-0.058 -0.17,0.003l-5.281,5.432c-0.066,0.061 -0.057,0.119 -0,0.178l1.782,1.731c0.811,0.789 1.67,1.162 2.594,1.12c0.915,-0.043 1.801,-0.5 2.65,-1.372c0.868,-0.901 1.33,-1.824 1.368,-2.765c0.037,-0.942 -0.349,-1.807 -1.16,-2.596l-1.783,-1.731Zm-25.634,5.197c-1.311,-0.946 -2.037,-2.158 -2.188,-3.636c-0.142,-1.477 0.321,-2.955 1.386,-4.432l9.309,-12.86c0.123,-0.17 0.273,-0.194 0.443,-0.07l1.292,0.94c0.17,0.123 0.198,0.269 0.076,0.439l-9.46,13.064c-0.679,0.934 -0.99,1.858 -0.933,2.774c0.047,0.914 0.452,1.648 1.216,2.202c0.783,0.565 1.613,0.731 2.509,0.498c0.896,-0.233 1.679,-0.817 2.358,-1.751l9.45,-13.064c0.122,-0.17 0.273,-0.193 0.443,-0.07l1.292,0.94c0.179,0.123 0.198,0.269 0.076,0.439l-9.309,12.861c-1.066,1.477 -2.33,2.374 -3.791,2.689c-1.453,0.316 -2.849,-0.005 -4.169,-0.963Zm-6.781,-11.975c-0.868,1.676 -2,2.737 -3.395,3.182c-1.396,0.445 -2.858,0.266 -4.376,-0.54l-4.254,-2.251c-0.179,-0.098 -0.226,-0.24 -0.123,-0.425l10.007,-18.89c0.094,-0.185 0.236,-0.228 0.424,-0.13l3.999,2.119c1.594,0.844 2.613,1.946 3.056,3.307c0.434,1.36 0.226,2.855 -0.641,4.485c-1.094,2.074 -2.613,3.083 -4.556,3.028c-0.047,-0 -0.075,0.008 -0.085,0.027c-0.009,0.018 -0.009,0.041 0,0.07c1.132,1.808 1.113,3.814 -0.056,6.018Zm-122.05,2.659c-0.17,0.082 -0.321,0.048 -0.434,-0.103l-13.053,-17.435l-0.028,-0.057c-0.085,-0.169 -0.038,-0.295 0.132,-0.377l1.5,-0.726c0.188,-0.092 0.33,-0.057 0.433,0.104l9.866,13.597c0.037,0.028 0.066,0.038 0.084,0.029c0.019,-0.009 0.029,-0.037 0.029,-0.084l-4.914,-15.994c-0.047,-0.188 0.009,-0.318 0.16,-0.392l1.302,-0.63c0.17,-0.082 0.311,-0.042 0.405,0.118l9.611,13.721c0.038,0.028 0.066,0.037 0.085,0.029c0.019,-0.01 0.028,-0.038 0.028,-0.084l-4.772,-16.062c-0.047,-0.189 0.009,-0.319 0.16,-0.392l1.5,-0.726c0.094,-0.046 0.179,-0.052 0.254,-0.018c0.076,0.034 0.123,0.102 0.151,0.206l5.81,20.94c0.057,0.179 -0,0.314 -0.189,0.405l-1.386,0.672c-0.151,0.073 -0.292,0.034 -0.406,-0.118l-9.61,-13.79c-0.038,-0.029 -0.076,-0.036 -0.104,-0.023c-0.028,0.014 -0.028,0.04 -0.009,0.077l4.913,16.065c0.057,0.178 0.01,0.309 -0.16,0.391l-1.358,0.657Zm115.071,-1.84c0.981,0.52 1.924,0.598 2.829,0.235c0.896,-0.362 1.669,-1.136 2.292,-2.322c0.641,-1.203 0.858,-2.286 0.651,-3.247c-0.198,-0.961 -0.793,-1.701 -1.773,-2.222l-2.302,-1.221c-0.075,-0.04 -0.132,-0.022 -0.169,0.052l-3.886,7.333c-0.047,0.075 -0.028,0.131 0.047,0.17l2.311,1.222Zm-90.691,-7.859c-0.179,0.057 -0.321,0.001 -0.415,-0.166l-1.924,-3.483c-0.01,-0.039 -0.038,-0.065 -0.076,-0.075c-0.037,-0.011 -0.075,-0.01 -0.113,0.003l-5.423,1.709c-0.047,0.012 -0.075,0.033 -0.094,0.062c-0.028,0.03 -0.028,0.064 -0.019,0.105l0.424,3.954c0.029,0.186 -0.047,0.31 -0.245,0.374l-1.537,0.481c-0.094,0.032 -0.179,0.025 -0.245,-0.019c-0.076,-0.045 -0.113,-0.12 -0.123,-0.227l-1.924,-21.807c-0.019,-0.192 0.066,-0.317 0.245,-0.373l1.802,-0.566c0.198,-0.063 0.339,-0.008 0.415,0.166l10.978,18.957l0.019,0.059c0.056,0.18 -0.01,0.299 -0.189,0.356l-1.556,0.49Zm96.849,-9.336c-0.075,-0.038 -0.132,-0.021 -0.169,0.053l-3.547,6.694c-0.047,0.075 -0.028,0.131 0.048,0.17l2.197,1.163c1,0.53 1.934,0.646 2.801,0.348c0.868,-0.299 1.585,-0.985 2.16,-2.059c0.585,-1.111 0.773,-2.124 0.538,-3.039c-0.227,-0.914 -0.84,-1.637 -1.84,-2.167l-2.188,-1.163Zm-89.012,7.417c-0.198,0.034 -0.321,-0.052 -0.358,-0.258l-3.546,-21.081c-0.038,-0.207 0.047,-0.327 0.254,-0.362l1.585,-0.266c0.207,-0.035 0.33,0.051 0.358,0.257l3.263,19.346c0.01,0.082 0.057,0.117 0.142,0.102l7.102,-1.195c0.198,-0.034 0.32,0.051 0.358,0.258l0.217,1.302c0.038,0.207 -0.047,0.328 -0.255,0.363l-9.12,1.534Zm35.962,-1.735c-1.547,-0.138 -2.754,-0.761 -3.622,-1.869c-0.868,-1.108 -1.226,-2.487 -1.085,-4.136l0.066,-0.72c0.019,-0.209 0.132,-0.304 0.34,-0.286l1.537,0.137c0.208,0.018 0.302,0.132 0.283,0.341l-0.056,0.626c-0.095,1.106 0.103,2.024 0.603,2.753c0.509,0.728 1.207,1.133 2.103,1.213c0.877,0.077 1.641,-0.181 2.283,-0.777c0.641,-0.595 1.009,-1.425 1.103,-2.489c0.066,-0.711 -0.019,-1.333 -0.255,-1.87c-0.245,-0.536 -0.565,-1.017 -0.98,-1.444c-0.415,-0.426 -1.113,-1.082 -2.085,-1.968c-0.971,-0.866 -1.735,-1.601 -2.291,-2.209c-0.557,-0.606 -1,-1.313 -1.311,-2.12c-0.321,-0.807 -0.434,-1.732 -0.34,-2.776c0.142,-1.628 0.726,-2.876 1.754,-3.742c1.019,-0.866 2.283,-1.232 3.792,-1.099c1.584,0.141 2.81,0.771 3.668,1.889c0.859,1.117 1.208,2.532 1.057,4.244l-0.076,0.782c-0.019,0.21 -0.132,0.304 -0.339,0.286l-1.566,-0.139c-0.207,-0.019 -0.302,-0.132 -0.283,-0.341l0.076,-0.815c0.094,-1.106 -0.104,-2.023 -0.595,-2.751c-0.49,-0.727 -1.197,-1.131 -2.112,-1.214c-0.84,-0.074 -1.556,0.163 -2.15,0.709c-0.595,0.547 -0.944,1.363 -1.038,2.448c-0.056,0.648 0.01,1.227 0.208,1.739c0.198,0.512 0.518,1.008 0.952,1.489c0.443,0.481 1.104,1.119 1.981,1.912c1.169,1.03 2.037,1.86 2.603,2.488c0.566,0.629 0.981,1.298 1.254,2.006c0.274,0.708 0.368,1.542 0.283,2.503c-0.151,1.712 -0.764,3.041 -1.839,3.987c-1.066,0.946 -2.377,1.35 -3.923,1.213Zm-52.099,-0.294c0.029,0.08 0.066,0.111 0.132,0.092l4.735,-1.491c0.056,-0.019 0.075,-0.068 0.056,-0.148l-6.111,-11.03c-0.038,-0.054 -0.066,-0.078 -0.085,-0.072c-0.028,0.007 -0.038,0.044 -0.038,0.11l1.311,12.539Zm40.394,-20.897c0.01,0.21 -0.085,0.318 -0.301,0.327l-7.281,0.289c-0.085,0.003 -0.132,0.047 -0.123,0.13l0.311,7.791c0,0.084 0.047,0.124 0.123,0.12l4.593,-0.182c0.207,-0.007 0.311,0.093 0.321,0.302l0.056,1.351c0.01,0.209 -0.094,0.319 -0.302,0.327l-4.583,0.182c-0.085,0.003 -0.123,0.046 -0.123,0.13l0.311,7.822c0,0.083 0.048,0.124 0.132,0.12l7.291,-0.288c0.207,-0.009 0.311,0.092 0.32,0.301l0.057,1.32c0.009,0.209 -0.094,0.318 -0.302,0.326l-9.337,0.37c-0.207,0.008 -0.311,-0.092 -0.32,-0.302l-0.849,-21.36c-0.01,-0.209 0.094,-0.319 0.302,-0.327l9.327,-0.37c0.208,-0.008 0.321,0.093 0.33,0.302l0.047,1.319Z" style="fill:#f2c8a2;"/></g></g></g></g></g></g></svg>